<?xml version="1.0" encoding="UTF-8"?>
<svg xmlns="http://www.w3.org/2000/svg" width="106" height="34" viewBox="0 0 106 34" fill="none">
  <g clip-path="url(#clip0_3795_15023)">
    <path d="M27.8497 0H25.7402V2.09711H27.8497V0Z" fill="#6193C6"></path>
    <path d="M29.2382 4.20215H25.7402V7.67942H29.2382V4.20215Z" fill="#EC872B"></path>
    <path d="M25.739 2.09668H23.6191V4.20205H25.739V2.09668Z" fill="#56B44A"></path>
    <path d="M0 6.66309H3.77479L10.9855 18.2561H11.0331V6.66309H14.5909V23.9441H10.7913L3.60537 12.3738H3.55578V23.9441H0V6.66309Z" fill="#1E3568"></path>
    <path d="M18.8267 18.5225C18.9238 20.7002 19.9878 21.694 21.899 21.694C23.2792 21.694 24.3907 20.8469 24.6097 20.0721H27.6345C26.6655 23.0246 24.6097 24.2829 21.7771 24.2829C17.8329 24.2829 15.3887 21.5721 15.3887 17.7002C15.3887 13.8283 17.9775 11.0928 21.7771 11.0928C26.0354 11.0928 28.0932 14.6754 27.8515 18.5225H18.8246H18.8267ZM24.4176 16.3448C24.1035 14.601 23.3535 13.6816 21.6821 13.6816C19.5044 13.6816 18.8742 15.3758 18.8267 16.3448H24.4176Z" fill="#1E3568"></path>
    <path d="M32.6669 11.4319H35.1834V13.7315H32.6669V19.9277C32.6669 21.0889 32.9582 21.3802 34.1194 21.3802C34.483 21.3802 34.8219 21.3554 35.1834 21.2831V23.9691C34.6029 24.0662 33.8529 24.0889 33.1752 24.0889C31.0698 24.0889 29.231 23.6054 29.231 21.1116V13.7294H27.1504V11.4298H29.231V7.67773H32.6669V11.4298V11.4319Z" fill="#1E3568"></path>
    <path d="M39.37 19.878C39.3948 21.378 40.6531 21.9834 42.0064 21.9834C42.9981 21.9834 44.2564 21.597 44.2564 20.3863C44.2564 19.345 42.8287 18.9813 40.3597 18.4503C38.3742 18.0144 36.3907 17.314 36.3907 15.1094C36.3907 11.9152 39.149 11.0908 41.8349 11.0908C44.5209 11.0908 47.087 12.0102 47.3535 15.0846H44.087C43.9899 13.754 42.9734 13.3904 41.7399 13.3904C40.9651 13.3904 39.8287 13.535 39.8287 14.5516C39.8287 15.7871 41.7647 15.9565 43.7254 16.4152C45.7337 16.8759 47.6944 17.6012 47.6944 19.9255C47.6944 23.2169 44.8391 24.283 41.9837 24.283C39.1283 24.283 36.2481 23.1941 36.1035 19.878H39.37Z" fill="#1E3568"></path>
    <path d="M64.2229 11.4318C62.6485 11.4318 61.0535 12.0991 60.3489 13.4958V11.4318H56.913V17.9917C56.913 20.533 56.1134 21.5743 54.2498 21.5743C52.6527 21.5743 52.0473 20.5578 52.0473 18.4999V11.4318H48.6113V19.128C48.6113 22.2251 49.5308 24.283 53.1857 24.283C54.6382 24.283 56.1382 23.6053 57.0101 22.2024H57.0824V23.9442H60.351V18.3037C60.351 16.1012 61.2229 14.2851 63.7394 14.2851C64.1506 14.2851 64.6588 14.3326 64.9729 14.407V11.4297H64.2229V11.4318Z" fill="#1E3568"></path>
    <path d="M69.4027 9.49378H65.9668V6.66113H69.4027V9.49378ZM65.9668 11.4297H69.4027V23.9421H65.9668V11.4318V11.4297Z" fill="#1E3568"></path>
    <path d="M76.6325 11.0908C80.5747 11.0908 83.116 13.7045 83.116 17.6962C83.116 21.6879 80.5767 24.2768 76.6325 24.2768C72.6883 24.2768 70.1738 21.6631 70.1738 17.6962C70.1738 13.7293 72.7131 11.0908 76.6325 11.0908ZM76.6325 21.6879C78.9796 21.6879 79.68 19.6797 79.68 17.6962C79.68 15.7127 78.9775 13.6797 76.6325 13.6797C74.2875 13.6797 73.6098 15.6879 73.6098 17.6962C73.6098 19.7045 74.3123 21.6879 76.6325 21.6879Z" fill="#1E3568"></path>
    <path d="M83.8867 11.4297H87.1532V13.1714H87.2256C88.0954 11.7685 89.5954 11.0908 91.0479 11.0908C94.7008 11.0908 95.6202 13.1466 95.6202 16.2437V23.9379H92.1842V16.8739C92.1842 14.8181 91.5789 13.8016 89.9838 13.8016C88.1202 13.8016 87.3227 14.8429 87.3227 17.3821V23.9379H83.8867V11.4297Z" fill="#1E3568"></path>
    <path d="M97.8652 20.4453V24H97.1963V20.4453H97.8652ZM98.9688 20.4453V20.9751H96.105V20.4453H98.9688ZM99.7085 20.4453H100.29L101.261 23.1211L102.23 20.4453H102.814L101.493 24H101.027L99.7085 20.4453ZM99.4155 20.4453H99.9844L100.087 22.9038V24H99.4155V20.4453ZM102.536 20.4453H103.107V24H102.436V22.9038L102.536 20.4453Z" fill="#1E3568"></path>
  </g>
  <path d="M2.06836 30.3271H0.928711V29.8672H2.06836C2.28906 29.8672 2.46777 29.832 2.60449 29.7617C2.74121 29.6914 2.84082 29.5938 2.90332 29.4688C2.96777 29.3438 3 29.2012 3 29.041C3 28.8945 2.96777 28.7568 2.90332 28.6279C2.84082 28.499 2.74121 28.3955 2.60449 28.3174C2.46777 28.2373 2.28906 28.1973 2.06836 28.1973H1.06055V32H0.495117V27.7344H2.06836C2.39062 27.7344 2.66309 27.79 2.88574 27.9014C3.1084 28.0127 3.27734 28.167 3.39258 28.3643C3.50781 28.5596 3.56543 28.7832 3.56543 29.0352C3.56543 29.3086 3.50781 29.542 3.39258 29.7354C3.27734 29.9287 3.1084 30.0762 2.88574 30.1777C2.66309 30.2773 2.39062 30.3271 2.06836 30.3271ZM4.01367 30.4502V30.3828C4.01367 30.1543 4.04688 29.9424 4.11328 29.7471C4.17969 29.5498 4.27539 29.3789 4.40039 29.2344C4.52539 29.0879 4.67676 28.9746 4.85449 28.8945C5.03223 28.8125 5.23145 28.7715 5.45215 28.7715C5.6748 28.7715 5.875 28.8125 6.05273 28.8945C6.23242 28.9746 6.38477 29.0879 6.50977 29.2344C6.63672 29.3789 6.7334 29.5498 6.7998 29.7471C6.86621 29.9424 6.89941 30.1543 6.89941 30.3828V30.4502C6.89941 30.6787 6.86621 30.8906 6.7998 31.0859C6.7334 31.2812 6.63672 31.4521 6.50977 31.5986C6.38477 31.7432 6.2334 31.8564 6.05566 31.9385C5.87988 32.0186 5.68066 32.0586 5.45801 32.0586C5.23535 32.0586 5.03516 32.0186 4.85742 31.9385C4.67969 31.8564 4.52734 31.7432 4.40039 31.5986C4.27539 31.4521 4.17969 31.2812 4.11328 31.0859C4.04688 30.8906 4.01367 30.6787 4.01367 30.4502ZM4.55566 30.3828V30.4502C4.55566 30.6084 4.57422 30.7578 4.61133 30.8984C4.64844 31.0371 4.7041 31.1602 4.77832 31.2676C4.85449 31.375 4.94922 31.46 5.0625 31.5225C5.17578 31.583 5.30762 31.6133 5.45801 31.6133C5.60645 31.6133 5.73633 31.583 5.84766 31.5225C5.96094 31.46 6.05469 31.375 6.12891 31.2676C6.20312 31.1602 6.25879 31.0371 6.2959 30.8984C6.33496 30.7578 6.35449 30.6084 6.35449 30.4502V30.3828C6.35449 30.2266 6.33496 30.0791 6.2959 29.9404C6.25879 29.7998 6.20215 29.6758 6.12598 29.5684C6.05176 29.459 5.95801 29.373 5.84473 29.3105C5.7334 29.248 5.60254 29.2168 5.45215 29.2168C5.30371 29.2168 5.17285 29.248 5.05957 29.3105C4.94824 29.373 4.85449 29.459 4.77832 29.5684C4.7041 29.6758 4.64844 29.7998 4.61133 29.9404C4.57422 30.0791 4.55566 30.2266 4.55566 30.3828ZM8.38184 31.4375L9.19629 28.8301H9.55371L9.4834 29.3486L8.6543 32H8.30566L8.38184 31.4375ZM7.83398 28.8301L8.52832 31.4668L8.57812 32H8.21191L7.29199 28.8301H7.83398ZM10.333 31.4463L10.9951 28.8301H11.5342L10.6143 32H10.251L10.333 31.4463ZM9.63281 28.8301L10.4297 31.3936L10.5205 32H10.1748L9.32227 29.3428L9.25195 28.8301H9.63281ZM13.4062 32.0586C13.1855 32.0586 12.9854 32.0215 12.8057 31.9473C12.6279 31.8711 12.4746 31.7646 12.3457 31.6279C12.2188 31.4912 12.1211 31.3291 12.0527 31.1416C11.9844 30.9541 11.9502 30.749 11.9502 30.5264V30.4033C11.9502 30.1455 11.9883 29.916 12.0645 29.7148C12.1406 29.5117 12.2441 29.3398 12.375 29.1992C12.5059 29.0586 12.6543 28.9521 12.8203 28.8799C12.9863 28.8076 13.1582 28.7715 13.3359 28.7715C13.5625 28.7715 13.7578 28.8105 13.9219 28.8887C14.0879 28.9668 14.2236 29.0762 14.3291 29.2168C14.4346 29.3555 14.5127 29.5195 14.5635 29.709C14.6143 29.8965 14.6396 30.1016 14.6396 30.3242V30.5674H12.2725V30.125H14.0977V30.084C14.0898 29.9434 14.0605 29.8066 14.0098 29.6738C13.9609 29.541 13.8828 29.4316 13.7754 29.3457C13.668 29.2598 13.5215 29.2168 13.3359 29.2168C13.2129 29.2168 13.0996 29.2432 12.9961 29.2959C12.8926 29.3467 12.8037 29.4229 12.7295 29.5244C12.6553 29.626 12.5977 29.75 12.5566 29.8965C12.5156 30.043 12.4951 30.2119 12.4951 30.4033V30.5264C12.4951 30.6768 12.5156 30.8184 12.5566 30.9512C12.5996 31.082 12.6611 31.1973 12.7412 31.2969C12.8232 31.3965 12.9219 31.4746 13.0371 31.5312C13.1543 31.5879 13.2871 31.6162 13.4355 31.6162C13.627 31.6162 13.7891 31.5771 13.9219 31.499C14.0547 31.4209 14.1709 31.3164 14.2705 31.1855L14.5986 31.4463C14.5303 31.5498 14.4434 31.6484 14.3379 31.7422C14.2324 31.8359 14.1025 31.9121 13.9482 31.9707C13.7959 32.0293 13.6152 32.0586 13.4062 32.0586ZM15.8145 29.3281V32H15.2725V28.8301H15.7998L15.8145 29.3281ZM16.8047 28.8125L16.8018 29.3164C16.7568 29.3066 16.7139 29.3008 16.6729 29.2988C16.6338 29.2949 16.5889 29.293 16.5381 29.293C16.4131 29.293 16.3027 29.3125 16.207 29.3516C16.1113 29.3906 16.0303 29.4453 15.9639 29.5156C15.8975 29.5859 15.8447 29.6699 15.8057 29.7676C15.7686 29.8633 15.7441 29.9688 15.7324 30.084L15.5801 30.1719C15.5801 29.9805 15.5986 29.8008 15.6357 29.6328C15.6748 29.4648 15.7344 29.3164 15.8145 29.1875C15.8945 29.0566 15.9961 28.9551 16.1191 28.8828C16.2441 28.8086 16.3926 28.7715 16.5645 28.7715C16.6035 28.7715 16.6484 28.7764 16.6992 28.7861C16.75 28.7939 16.7852 28.8027 16.8047 28.8125ZM17.8945 28.8301V32H17.3496V28.8301H17.8945ZM17.3086 27.9893C17.3086 27.9014 17.335 27.8271 17.3877 27.7666C17.4424 27.7061 17.5225 27.6758 17.6279 27.6758C17.7314 27.6758 17.8105 27.7061 17.8652 27.7666C17.9219 27.8271 17.9502 27.9014 17.9502 27.9893C17.9502 28.0732 17.9219 28.1455 17.8652 28.2061C17.8105 28.2646 17.7314 28.2939 17.6279 28.2939C17.5225 28.2939 17.4424 28.2646 17.3877 28.2061C17.335 28.1455 17.3086 28.0732 17.3086 27.9893ZM19.3066 29.5068V32H18.7646V28.8301H19.2773L19.3066 29.5068ZM19.1777 30.2949L18.9521 30.2861C18.9541 30.0693 18.9863 29.8691 19.0488 29.6855C19.1113 29.5 19.1992 29.3389 19.3125 29.2021C19.4258 29.0654 19.5605 28.96 19.7168 28.8857C19.875 28.8096 20.0498 28.7715 20.2412 28.7715C20.3975 28.7715 20.5381 28.793 20.6631 28.8359C20.7881 28.877 20.8945 28.9434 20.9824 29.0352C21.0723 29.127 21.1406 29.2461 21.1875 29.3926C21.2344 29.5371 21.2578 29.7139 21.2578 29.9229V32H20.7129V29.917C20.7129 29.751 20.6885 29.6182 20.6396 29.5186C20.5908 29.417 20.5195 29.3438 20.4258 29.2988C20.332 29.252 20.2168 29.2285 20.0801 29.2285C19.9453 29.2285 19.8223 29.2568 19.7109 29.3135C19.6016 29.3701 19.5068 29.4482 19.4268 29.5479C19.3486 29.6475 19.2871 29.7617 19.2422 29.8906C19.1992 30.0176 19.1777 30.1523 19.1777 30.2949ZM24.1348 28.8301H24.627V31.9326C24.627 32.2119 24.5703 32.4502 24.457 32.6475C24.3438 32.8447 24.1855 32.9941 23.9824 33.0957C23.7812 33.1992 23.5488 33.251 23.2852 33.251C23.1758 33.251 23.0469 33.2334 22.8984 33.1982C22.752 33.165 22.6074 33.1074 22.4648 33.0254C22.3242 32.9453 22.2061 32.8369 22.1104 32.7002L22.3945 32.3779C22.5273 32.5381 22.666 32.6494 22.8105 32.7119C22.957 32.7744 23.1016 32.8057 23.2441 32.8057C23.416 32.8057 23.5645 32.7734 23.6895 32.709C23.8145 32.6445 23.9111 32.5488 23.9795 32.4219C24.0498 32.2969 24.085 32.1426 24.085 31.959V29.5273L24.1348 28.8301ZM21.9521 30.4502V30.3887C21.9521 30.1465 21.9805 29.9268 22.0371 29.7295C22.0957 29.5303 22.1787 29.3594 22.2861 29.2168C22.3955 29.0742 22.5273 28.9648 22.6816 28.8887C22.8359 28.8105 23.0098 28.7715 23.2031 28.7715C23.4023 28.7715 23.5762 28.8066 23.7246 28.877C23.875 28.9453 24.002 29.0459 24.1055 29.1787C24.2109 29.3096 24.2939 29.4678 24.3545 29.6533C24.415 29.8389 24.457 30.0488 24.4805 30.2832V30.5527C24.459 30.7852 24.417 30.9941 24.3545 31.1797C24.2939 31.3652 24.2109 31.5234 24.1055 31.6543C24.002 31.7852 23.875 31.8857 23.7246 31.9561C23.5742 32.0244 23.3984 32.0586 23.1973 32.0586C23.0078 32.0586 22.8359 32.0186 22.6816 31.9385C22.5293 31.8584 22.3984 31.7461 22.2891 31.6016C22.1797 31.457 22.0957 31.2871 22.0371 31.0918C21.9805 30.8945 21.9521 30.6807 21.9521 30.4502ZM22.4941 30.3887V30.4502C22.4941 30.6084 22.5098 30.7568 22.541 30.8955C22.5742 31.0342 22.624 31.1562 22.6904 31.2617C22.7588 31.3672 22.8457 31.4502 22.9512 31.5107C23.0566 31.5693 23.1826 31.5986 23.3291 31.5986C23.5088 31.5986 23.6572 31.5605 23.7744 31.4844C23.8916 31.4082 23.9844 31.3076 24.0527 31.1826C24.123 31.0576 24.1777 30.9219 24.2168 30.7754V30.0693C24.1953 29.9619 24.1621 29.8584 24.1172 29.7588C24.0742 29.6572 24.0176 29.5674 23.9473 29.4893C23.8789 29.4092 23.7939 29.3457 23.6924 29.2988C23.5908 29.252 23.4717 29.2285 23.335 29.2285C23.1865 29.2285 23.0586 29.2598 22.9512 29.3223C22.8457 29.3828 22.7588 29.4668 22.6904 29.5742C22.624 29.6797 22.5742 29.8027 22.541 29.9434C22.5098 30.082 22.4941 30.2305 22.4941 30.3887ZM29.2939 30.9219C29.2939 30.8223 29.2783 30.7344 29.2471 30.6582C29.2178 30.5801 29.165 30.5098 29.0889 30.4473C29.0146 30.3848 28.9111 30.3252 28.7783 30.2686C28.6475 30.2119 28.4814 30.1543 28.2803 30.0957C28.0693 30.0332 27.8789 29.9639 27.709 29.8877C27.5391 29.8096 27.3936 29.7207 27.2725 29.6211C27.1514 29.5215 27.0586 29.4072 26.9941 29.2783C26.9297 29.1494 26.8975 29.002 26.8975 28.8359C26.8975 28.6699 26.9316 28.5166 27 28.376C27.0684 28.2354 27.166 28.1133 27.293 28.0098C27.4219 27.9043 27.5752 27.8223 27.7529 27.7637C27.9307 27.7051 28.1289 27.6758 28.3477 27.6758C28.668 27.6758 28.9395 27.7373 29.1621 27.8604C29.3867 27.9814 29.5576 28.1406 29.6748 28.3379C29.792 28.5332 29.8506 28.7422 29.8506 28.9648H29.2881C29.2881 28.8047 29.2539 28.6631 29.1855 28.54C29.1172 28.415 29.0137 28.3174 28.875 28.2471C28.7363 28.1748 28.5605 28.1387 28.3477 28.1387C28.1465 28.1387 27.9805 28.1689 27.8496 28.2295C27.7188 28.29 27.6211 28.3721 27.5566 28.4756C27.4941 28.5791 27.4629 28.6973 27.4629 28.8301C27.4629 28.9199 27.4814 29.002 27.5186 29.0762C27.5576 29.1484 27.6172 29.2158 27.6973 29.2783C27.7793 29.3408 27.8828 29.3984 28.0078 29.4512C28.1348 29.5039 28.2861 29.5547 28.4619 29.6035C28.7041 29.6719 28.9131 29.748 29.0889 29.832C29.2646 29.916 29.4092 30.0107 29.5225 30.1162C29.6377 30.2197 29.7227 30.3379 29.7773 30.4707C29.834 30.6016 29.8623 30.75 29.8623 30.916C29.8623 31.0898 29.8271 31.2471 29.7568 31.3877C29.6865 31.5283 29.5859 31.6484 29.4551 31.748C29.3242 31.8477 29.167 31.9248 28.9834 31.9795C28.8018 32.0322 28.5986 32.0586 28.374 32.0586C28.1768 32.0586 27.9824 32.0312 27.791 31.9766C27.6016 31.9219 27.4287 31.8398 27.2725 31.7305C27.1182 31.6211 26.9941 31.4863 26.9004 31.3262C26.8086 31.1641 26.7627 30.9766 26.7627 30.7637H27.3252C27.3252 30.9102 27.3535 31.0361 27.4102 31.1416C27.4668 31.2451 27.5439 31.3311 27.6416 31.3994C27.7412 31.4678 27.8535 31.5186 27.9785 31.5518C28.1055 31.583 28.2373 31.5986 28.374 31.5986C28.5713 31.5986 28.7383 31.5713 28.875 31.5166C29.0117 31.4619 29.1152 31.3838 29.1855 31.2822C29.2578 31.1807 29.2939 31.0605 29.2939 30.9219ZM31.8164 32.0586C31.5957 32.0586 31.3955 32.0215 31.2158 31.9473C31.0381 31.8711 30.8848 31.7646 30.7559 31.6279C30.6289 31.4912 30.5312 31.3291 30.4629 31.1416C30.3945 30.9541 30.3604 30.749 30.3604 30.5264V30.4033C30.3604 30.1455 30.3984 29.916 30.4746 29.7148C30.5508 29.5117 30.6543 29.3398 30.7852 29.1992C30.916 29.0586 31.0645 28.9521 31.2305 28.8799C31.3965 28.8076 31.5684 28.7715 31.7461 28.7715C31.9727 28.7715 32.168 28.8105 32.332 28.8887C32.498 28.9668 32.6338 29.0762 32.7393 29.2168C32.8447 29.3555 32.9229 29.5195 32.9736 29.709C33.0244 29.8965 33.0498 30.1016 33.0498 30.3242V30.5674H30.6826V30.125H32.5078V30.084C32.5 29.9434 32.4707 29.8066 32.4199 29.6738C32.3711 29.541 32.293 29.4316 32.1855 29.3457C32.0781 29.2598 31.9316 29.2168 31.7461 29.2168C31.623 29.2168 31.5098 29.2432 31.4062 29.2959C31.3027 29.3467 31.2139 29.4229 31.1396 29.5244C31.0654 29.626 31.0078 29.75 30.9668 29.8965C30.9258 30.043 30.9053 30.2119 30.9053 30.4033V30.5264C30.9053 30.6768 30.9258 30.8184 30.9668 30.9512C31.0098 31.082 31.0713 31.1973 31.1514 31.2969C31.2334 31.3965 31.332 31.4746 31.4473 31.5312C31.5645 31.5879 31.6973 31.6162 31.8457 31.6162C32.0371 31.6162 32.1992 31.5771 32.332 31.499C32.4648 31.4209 32.5811 31.3164 32.6807 31.1855L33.0088 31.4463C32.9404 31.5498 32.8535 31.6484 32.748 31.7422C32.6426 31.8359 32.5127 31.9121 32.3584 31.9707C32.2061 32.0293 32.0254 32.0586 31.8164 32.0586ZM34.9512 31.6133C35.0801 31.6133 35.1992 31.5869 35.3086 31.5342C35.418 31.4814 35.5078 31.4092 35.5781 31.3174C35.6484 31.2236 35.6885 31.1172 35.6982 30.998H36.2139C36.2041 31.1855 36.1406 31.3604 36.0234 31.5225C35.9082 31.6826 35.7568 31.8125 35.5693 31.9121C35.3818 32.0098 35.1758 32.0586 34.9512 32.0586C34.7129 32.0586 34.5049 32.0166 34.3271 31.9326C34.1514 31.8486 34.0049 31.7334 33.8877 31.5869C33.7725 31.4404 33.6855 31.2725 33.627 31.083C33.5703 30.8916 33.542 30.6895 33.542 30.4766V30.3535C33.542 30.1406 33.5703 29.9395 33.627 29.75C33.6855 29.5586 33.7725 29.3896 33.8877 29.2432C34.0049 29.0967 34.1514 28.9814 34.3271 28.8975C34.5049 28.8135 34.7129 28.7715 34.9512 28.7715C35.1992 28.7715 35.416 28.8223 35.6016 28.9238C35.7871 29.0234 35.9326 29.1602 36.0381 29.334C36.1455 29.5059 36.2041 29.7012 36.2139 29.9199H35.6982C35.6885 29.7891 35.6514 29.6709 35.5869 29.5654C35.5244 29.46 35.4385 29.376 35.3291 29.3135C35.2217 29.249 35.0957 29.2168 34.9512 29.2168C34.7852 29.2168 34.6455 29.25 34.5322 29.3164C34.4209 29.3809 34.332 29.4688 34.2656 29.5801C34.2012 29.6895 34.1543 29.8115 34.125 29.9463C34.0977 30.0791 34.084 30.2148 34.084 30.3535V30.4766C34.084 30.6152 34.0977 30.752 34.125 30.8867C34.1523 31.0215 34.1982 31.1436 34.2627 31.2529C34.3291 31.3623 34.418 31.4502 34.5293 31.5166C34.6426 31.5811 34.7832 31.6133 34.9512 31.6133ZM38.7627 31.2676V28.8301H39.3076V32H38.7891L38.7627 31.2676ZM38.8652 30.5996L39.0908 30.5938C39.0908 30.8047 39.0684 31 39.0234 31.1797C38.9805 31.3574 38.9102 31.5117 38.8125 31.6426C38.7148 31.7734 38.5869 31.876 38.4287 31.9502C38.2705 32.0225 38.0781 32.0586 37.8516 32.0586C37.6973 32.0586 37.5557 32.0361 37.4268 31.9912C37.2998 31.9463 37.1904 31.877 37.0986 31.7832C37.0068 31.6895 36.9355 31.5674 36.8848 31.417C36.8359 31.2666 36.8115 31.0859 36.8115 30.875V28.8301H37.3535V30.8809C37.3535 31.0234 37.3691 31.1416 37.4004 31.2354C37.4336 31.3271 37.4775 31.4004 37.5322 31.4551C37.5889 31.5078 37.6514 31.5449 37.7197 31.5664C37.79 31.5879 37.8623 31.5986 37.9365 31.5986C38.167 31.5986 38.3496 31.5547 38.4844 31.4668C38.6191 31.377 38.7158 31.2568 38.7744 31.1064C38.835 30.9541 38.8652 30.7852 38.8652 30.5996ZM40.6758 29.3281V32H40.1338V28.8301H40.6611L40.6758 29.3281ZM41.666 28.8125L41.6631 29.3164C41.6182 29.3066 41.5752 29.3008 41.5342 29.2988C41.4951 29.2949 41.4502 29.293 41.3994 29.293C41.2744 29.293 41.1641 29.3125 41.0684 29.3516C40.9727 29.3906 40.8916 29.4453 40.8252 29.5156C40.7588 29.5859 40.7061 29.6699 40.667 29.7676C40.6299 29.8633 40.6055 29.9688 40.5938 30.084L40.4414 30.1719C40.4414 29.9805 40.46 29.8008 40.4971 29.6328C40.5361 29.4648 40.5957 29.3164 40.6758 29.1875C40.7559 29.0566 40.8574 28.9551 40.9805 28.8828C41.1055 28.8086 41.2539 28.7715 41.4258 28.7715C41.4648 28.7715 41.5098 28.7764 41.5605 28.7861C41.6113 28.7939 41.6465 28.8027 41.666 28.8125ZM43.4238 32.0586C43.2031 32.0586 43.0029 32.0215 42.8232 31.9473C42.6455 31.8711 42.4922 31.7646 42.3633 31.6279C42.2363 31.4912 42.1387 31.3291 42.0703 31.1416C42.002 30.9541 41.9678 30.749 41.9678 30.5264V30.4033C41.9678 30.1455 42.0059 29.916 42.082 29.7148C42.1582 29.5117 42.2617 29.3398 42.3926 29.1992C42.5234 29.0586 42.6719 28.9521 42.8379 28.8799C43.0039 28.8076 43.1758 28.7715 43.3535 28.7715C43.5801 28.7715 43.7754 28.8105 43.9395 28.8887C44.1055 28.9668 44.2412 29.0762 44.3467 29.2168C44.4521 29.3555 44.5303 29.5195 44.5811 29.709C44.6318 29.8965 44.6572 30.1016 44.6572 30.3242V30.5674H42.29V30.125H44.1152V30.084C44.1074 29.9434 44.0781 29.8066 44.0273 29.6738C43.9785 29.541 43.9004 29.4316 43.793 29.3457C43.6855 29.2598 43.5391 29.2168 43.3535 29.2168C43.2305 29.2168 43.1172 29.2432 43.0137 29.2959C42.9102 29.3467 42.8213 29.4229 42.7471 29.5244C42.6729 29.626 42.6152 29.75 42.5742 29.8965C42.5332 30.043 42.5127 30.2119 42.5127 30.4033V30.5264C42.5127 30.6768 42.5332 30.8184 42.5742 30.9512C42.6172 31.082 42.6787 31.1973 42.7588 31.2969C42.8408 31.3965 42.9395 31.4746 43.0547 31.5312C43.1719 31.5879 43.3047 31.6162 43.4531 31.6162C43.6445 31.6162 43.8066 31.5771 43.9395 31.499C44.0723 31.4209 44.1885 31.3164 44.2881 31.1855L44.6162 31.4463C44.5479 31.5498 44.4609 31.6484 44.3555 31.7422C44.25 31.8359 44.1201 31.9121 43.9658 31.9707C43.8135 32.0293 43.6328 32.0586 43.4238 32.0586ZM48.6475 31.458V29.8262C48.6475 29.7012 48.6221 29.5928 48.5713 29.501C48.5225 29.4072 48.4482 29.335 48.3486 29.2842C48.249 29.2334 48.126 29.208 47.9795 29.208C47.8428 29.208 47.7227 29.2314 47.6191 29.2783C47.5176 29.3252 47.4375 29.3867 47.3789 29.4629C47.3223 29.5391 47.2939 29.6211 47.2939 29.709H46.752C46.752 29.5957 46.7812 29.4834 46.8398 29.3721C46.8984 29.2607 46.9824 29.1602 47.0918 29.0703C47.2031 28.9785 47.3359 28.9062 47.4902 28.8535C47.6465 28.7988 47.8203 28.7715 48.0117 28.7715C48.2422 28.7715 48.4453 28.8105 48.6211 28.8887C48.7988 28.9668 48.9375 29.085 49.0371 29.2432C49.1387 29.3994 49.1895 29.5957 49.1895 29.832V31.3086C49.1895 31.4141 49.1982 31.5264 49.2158 31.6455C49.2354 31.7646 49.2637 31.8672 49.3008 31.9531V32H48.7354C48.708 31.9375 48.6865 31.8545 48.6709 31.751C48.6553 31.6455 48.6475 31.5479 48.6475 31.458ZM48.7412 30.0781L48.7471 30.459H48.1992C48.0449 30.459 47.9072 30.4717 47.7861 30.4971C47.665 30.5205 47.5635 30.5566 47.4814 30.6055C47.3994 30.6543 47.3369 30.7158 47.2939 30.79C47.251 30.8623 47.2295 30.9473 47.2295 31.0449C47.2295 31.1445 47.252 31.2354 47.2969 31.3174C47.3418 31.3994 47.4092 31.4648 47.499 31.5137C47.5908 31.5605 47.7031 31.584 47.8359 31.584C48.002 31.584 48.1484 31.5488 48.2754 31.4785C48.4023 31.4082 48.5029 31.3223 48.5771 31.2207C48.6533 31.1191 48.6943 31.0205 48.7002 30.9248L48.9316 31.1855C48.918 31.2676 48.8809 31.3584 48.8203 31.458C48.7598 31.5576 48.6787 31.6533 48.5771 31.7451C48.4775 31.835 48.3584 31.9102 48.2197 31.9707C48.083 32.0293 47.9287 32.0586 47.7568 32.0586C47.542 32.0586 47.3535 32.0166 47.1914 31.9326C47.0312 31.8486 46.9062 31.7363 46.8164 31.5957C46.7285 31.4531 46.6846 31.2939 46.6846 31.1182C46.6846 30.9482 46.7178 30.7988 46.7842 30.6699C46.8506 30.5391 46.9463 30.4307 47.0713 30.3447C47.1963 30.2568 47.3467 30.1904 47.5225 30.1455C47.6982 30.1006 47.8945 30.0781 48.1113 30.0781H48.7412ZM50.584 29.5068V32H50.042V28.8301H50.5547L50.584 29.5068ZM50.4551 30.2949L50.2295 30.2861C50.2314 30.0693 50.2637 29.8691 50.3262 29.6855C50.3887 29.5 50.4766 29.3389 50.5898 29.2021C50.7031 29.0654 50.8379 28.96 50.9941 28.8857C51.1523 28.8096 51.3271 28.7715 51.5186 28.7715C51.6748 28.7715 51.8154 28.793 51.9404 28.8359C52.0654 28.877 52.1719 28.9434 52.2598 29.0352C52.3496 29.127 52.418 29.2461 52.4648 29.3926C52.5117 29.5371 52.5352 29.7139 52.5352 29.9229V32H51.9902V29.917C51.9902 29.751 51.9658 29.6182 51.917 29.5186C51.8682 29.417 51.7969 29.3438 51.7031 29.2988C51.6094 29.252 51.4941 29.2285 51.3574 29.2285C51.2227 29.2285 51.0996 29.2568 50.9883 29.3135C50.8789 29.3701 50.7842 29.4482 50.7041 29.5479C50.626 29.6475 50.5645 29.7617 50.5195 29.8906C50.4766 30.0176 50.4551 30.1523 50.4551 30.2949ZM55.3564 31.3848V27.5H55.9014V32H55.4033L55.3564 31.3848ZM53.2236 30.4502V30.3887C53.2236 30.1465 53.2529 29.9268 53.3115 29.7295C53.3721 29.5303 53.457 29.3594 53.5664 29.2168C53.6777 29.0742 53.8096 28.9648 53.9619 28.8887C54.1162 28.8105 54.2881 28.7715 54.4775 28.7715C54.6768 28.7715 54.8506 28.8066 54.999 28.877C55.1494 28.9453 55.2764 29.0459 55.3799 29.1787C55.4854 29.3096 55.5684 29.4678 55.6289 29.6533C55.6895 29.8389 55.7314 30.0488 55.7549 30.2832V30.5527C55.7334 30.7852 55.6914 30.9941 55.6289 31.1797C55.5684 31.3652 55.4854 31.5234 55.3799 31.6543C55.2764 31.7852 55.1494 31.8857 54.999 31.9561C54.8486 32.0244 54.6729 32.0586 54.4717 32.0586C54.2861 32.0586 54.1162 32.0186 53.9619 31.9385C53.8096 31.8584 53.6777 31.7461 53.5664 31.6016C53.457 31.457 53.3721 31.2871 53.3115 31.0918C53.2529 30.8945 53.2236 30.6807 53.2236 30.4502ZM53.7686 30.3887V30.4502C53.7686 30.6084 53.7842 30.7568 53.8154 30.8955C53.8486 31.0342 53.8994 31.1562 53.9678 31.2617C54.0361 31.3672 54.123 31.4502 54.2285 31.5107C54.334 31.5693 54.46 31.5986 54.6064 31.5986C54.7861 31.5986 54.9336 31.5605 55.0488 31.4844C55.166 31.4082 55.2598 31.3076 55.3301 31.1826C55.4004 31.0576 55.4551 30.9219 55.4941 30.7754V30.0693C55.4707 29.9619 55.4365 29.8584 55.3916 29.7588C55.3486 29.6572 55.292 29.5674 55.2217 29.4893C55.1533 29.4092 55.0684 29.3457 54.9668 29.2988C54.8672 29.252 54.749 29.2285 54.6123 29.2285C54.4639 29.2285 54.3359 29.2598 54.2285 29.3223C54.123 29.3828 54.0361 29.4668 53.9678 29.5742C53.8994 29.6797 53.8486 29.8027 53.8154 29.9434C53.7842 30.082 53.7686 30.2305 53.7686 30.3887ZM59.8945 28.1123L58.4824 32H57.9053L59.5312 27.7344H59.9033L59.8945 28.1123ZM61.0781 32L59.6631 28.1123L59.6543 27.7344H60.0264L61.6582 32H61.0781ZM61.0049 30.4209V30.8838H58.6084V30.4209H61.0049ZM64.2012 28.8301H64.6934V31.9326C64.6934 32.2119 64.6367 32.4502 64.5234 32.6475C64.4102 32.8447 64.252 32.9941 64.0488 33.0957C63.8477 33.1992 63.6152 33.251 63.3516 33.251C63.2422 33.251 63.1133 33.2334 62.9648 33.1982C62.8184 33.165 62.6738 33.1074 62.5312 33.0254C62.3906 32.9453 62.2725 32.8369 62.1768 32.7002L62.4609 32.3779C62.5938 32.5381 62.7324 32.6494 62.877 32.7119C63.0234 32.7744 63.168 32.8057 63.3105 32.8057C63.4824 32.8057 63.6309 32.7734 63.7559 32.709C63.8809 32.6445 63.9775 32.5488 64.0459 32.4219C64.1162 32.2969 64.1514 32.1426 64.1514 31.959V29.5273L64.2012 28.8301ZM62.0186 30.4502V30.3887C62.0186 30.1465 62.0469 29.9268 62.1035 29.7295C62.1621 29.5303 62.2451 29.3594 62.3525 29.2168C62.4619 29.0742 62.5938 28.9648 62.748 28.8887C62.9023 28.8105 63.0762 28.7715 63.2695 28.7715C63.4688 28.7715 63.6426 28.8066 63.791 28.877C63.9414 28.9453 64.0684 29.0459 64.1719 29.1787C64.2773 29.3096 64.3604 29.4678 64.4209 29.6533C64.4814 29.8389 64.5234 30.0488 64.5469 30.2832V30.5527C64.5254 30.7852 64.4834 30.9941 64.4209 31.1797C64.3604 31.3652 64.2773 31.5234 64.1719 31.6543C64.0684 31.7852 63.9414 31.8857 63.791 31.9561C63.6406 32.0244 63.4648 32.0586 63.2637 32.0586C63.0742 32.0586 62.9023 32.0186 62.748 31.9385C62.5957 31.8584 62.4648 31.7461 62.3555 31.6016C62.2461 31.457 62.1621 31.2871 62.1035 31.0918C62.0469 30.8945 62.0186 30.6807 62.0186 30.4502ZM62.5605 30.3887V30.4502C62.5605 30.6084 62.5762 30.7568 62.6074 30.8955C62.6406 31.0342 62.6904 31.1562 62.7568 31.2617C62.8252 31.3672 62.9121 31.4502 63.0176 31.5107C63.123 31.5693 63.249 31.5986 63.3955 31.5986C63.5752 31.5986 63.7236 31.5605 63.8408 31.4844C63.958 31.4082 64.0508 31.3076 64.1191 31.1826C64.1895 31.0576 64.2441 30.9219 64.2832 30.7754V30.0693C64.2617 29.9619 64.2285 29.8584 64.1836 29.7588C64.1406 29.6572 64.084 29.5674 64.0137 29.4893C63.9453 29.4092 63.8604 29.3457 63.7588 29.2988C63.6572 29.252 63.5381 29.2285 63.4014 29.2285C63.2529 29.2285 63.125 29.2598 63.0176 29.3223C62.9121 29.3828 62.8252 29.4668 62.7568 29.5742C62.6904 29.6797 62.6406 29.8027 62.6074 29.9434C62.5762 30.082 62.5605 30.2305 62.5605 30.3887ZM66.1055 28.8301V32H65.5605V28.8301H66.1055ZM65.5195 27.9893C65.5195 27.9014 65.5459 27.8271 65.5986 27.7666C65.6533 27.7061 65.7334 27.6758 65.8389 27.6758C65.9424 27.6758 66.0215 27.7061 66.0762 27.7666C66.1328 27.8271 66.1611 27.9014 66.1611 27.9893C66.1611 28.0732 66.1328 28.1455 66.0762 28.2061C66.0215 28.2646 65.9424 28.2939 65.8389 28.2939C65.7334 28.2939 65.6533 28.2646 65.5986 28.2061C65.5459 28.1455 65.5195 28.0732 65.5195 27.9893ZM67.5645 27.5V32H67.0195V27.5H67.5645ZM69.75 32.0586C69.5293 32.0586 69.3291 32.0215 69.1494 31.9473C68.9717 31.8711 68.8184 31.7646 68.6895 31.6279C68.5625 31.4912 68.4648 31.3291 68.3965 31.1416C68.3281 30.9541 68.2939 30.749 68.2939 30.5264V30.4033C68.2939 30.1455 68.332 29.916 68.4082 29.7148C68.4844 29.5117 68.5879 29.3398 68.7188 29.1992C68.8496 29.0586 68.998 28.9521 69.1641 28.8799C69.3301 28.8076 69.502 28.7715 69.6797 28.7715C69.9062 28.7715 70.1016 28.8105 70.2656 28.8887C70.4316 28.9668 70.5674 29.0762 70.6729 29.2168C70.7783 29.3555 70.8564 29.5195 70.9072 29.709C70.958 29.8965 70.9834 30.1016 70.9834 30.3242V30.5674H68.6162V30.125H70.4414V30.084C70.4336 29.9434 70.4043 29.8066 70.3535 29.6738C70.3047 29.541 70.2266 29.4316 70.1191 29.3457C70.0117 29.2598 69.8652 29.2168 69.6797 29.2168C69.5566 29.2168 69.4434 29.2432 69.3398 29.2959C69.2363 29.3467 69.1475 29.4229 69.0732 29.5244C68.999 29.626 68.9414 29.75 68.9004 29.8965C68.8594 30.043 68.8389 30.2119 68.8389 30.4033V30.5264C68.8389 30.6768 68.8594 30.8184 68.9004 30.9512C68.9434 31.082 69.0049 31.1973 69.085 31.2969C69.167 31.3965 69.2656 31.4746 69.3809 31.5312C69.498 31.5879 69.6309 31.6162 69.7793 31.6162C69.9707 31.6162 70.1328 31.5771 70.2656 31.499C70.3984 31.4209 70.5146 31.3164 70.6143 31.1855L70.9424 31.4463C70.874 31.5498 70.7871 31.6484 70.6816 31.7422C70.5762 31.8359 70.4463 31.9121 70.292 31.9707C70.1396 32.0293 69.959 32.0586 69.75 32.0586ZM76.4678 27.7344V32H75.8994L73.752 28.71V32H73.1865V27.7344H73.752L75.9082 31.0332V27.7344H76.4678ZM78.7031 32.0586C78.4824 32.0586 78.2822 32.0215 78.1025 31.9473C77.9248 31.8711 77.7715 31.7646 77.6426 31.6279C77.5156 31.4912 77.418 31.3291 77.3496 31.1416C77.2812 30.9541 77.2471 30.749 77.2471 30.5264V30.4033C77.2471 30.1455 77.2852 29.916 77.3613 29.7148C77.4375 29.5117 77.541 29.3398 77.6719 29.1992C77.8027 29.0586 77.9512 28.9521 78.1172 28.8799C78.2832 28.8076 78.4551 28.7715 78.6328 28.7715C78.8594 28.7715 79.0547 28.8105 79.2188 28.8887C79.3848 28.9668 79.5205 29.0762 79.626 29.2168C79.7314 29.3555 79.8096 29.5195 79.8604 29.709C79.9111 29.8965 79.9365 30.1016 79.9365 30.3242V30.5674H77.5693V30.125H79.3945V30.084C79.3867 29.9434 79.3574 29.8066 79.3066 29.6738C79.2578 29.541 79.1797 29.4316 79.0723 29.3457C78.9648 29.2598 78.8184 29.2168 78.6328 29.2168C78.5098 29.2168 78.3965 29.2432 78.293 29.2959C78.1895 29.3467 78.1006 29.4229 78.0264 29.5244C77.9521 29.626 77.8945 29.75 77.8535 29.8965C77.8125 30.043 77.792 30.2119 77.792 30.4033V30.5264C77.792 30.6768 77.8125 30.8184 77.8535 30.9512C77.8965 31.082 77.958 31.1973 78.0381 31.2969C78.1201 31.3965 78.2188 31.4746 78.334 31.5312C78.4512 31.5879 78.584 31.6162 78.7324 31.6162C78.9238 31.6162 79.0859 31.5771 79.2188 31.499C79.3516 31.4209 79.4678 31.3164 79.5674 31.1855L79.8955 31.4463C79.8271 31.5498 79.7402 31.6484 79.6348 31.7422C79.5293 31.8359 79.3994 31.9121 79.2451 31.9707C79.0928 32.0293 78.9121 32.0586 78.7031 32.0586ZM81.8965 28.8301V29.2461H80.1826V28.8301H81.8965ZM80.7627 28.0596H81.3047V31.2148C81.3047 31.3223 81.3213 31.4033 81.3545 31.458C81.3877 31.5127 81.4307 31.5488 81.4834 31.5664C81.5361 31.584 81.5928 31.5928 81.6533 31.5928C81.6982 31.5928 81.7451 31.5889 81.7939 31.5811C81.8447 31.5713 81.8828 31.5635 81.9082 31.5576L81.9111 32C81.8682 32.0137 81.8115 32.0264 81.7412 32.0381C81.6729 32.0518 81.5898 32.0586 81.4922 32.0586C81.3594 32.0586 81.2373 32.0322 81.126 31.9795C81.0146 31.9268 80.9258 31.8389 80.8594 31.7158C80.7949 31.5908 80.7627 31.4229 80.7627 31.2119V28.0596ZM83.335 31.4375L84.1494 28.8301H84.5068L84.4365 29.3486L83.6074 32H83.2588L83.335 31.4375ZM82.7871 28.8301L83.4814 31.4668L83.5312 32H83.165L82.2451 28.8301H82.7871ZM85.2861 31.4463L85.9482 28.8301H86.4873L85.5674 32H85.2041L85.2861 31.4463ZM84.5859 28.8301L85.3828 31.3936L85.4736 32H85.1279L84.2754 29.3428L84.2051 28.8301H84.5859ZM86.9004 30.4502V30.3828C86.9004 30.1543 86.9336 29.9424 87 29.7471C87.0664 29.5498 87.1621 29.3789 87.2871 29.2344C87.4121 29.0879 87.5635 28.9746 87.7412 28.8945C87.9189 28.8125 88.1182 28.7715 88.3389 28.7715C88.5615 28.7715 88.7617 28.8125 88.9395 28.8945C89.1191 28.9746 89.2715 29.0879 89.3965 29.2344C89.5234 29.3789 89.6201 29.5498 89.6865 29.7471C89.7529 29.9424 89.7861 30.1543 89.7861 30.3828V30.4502C89.7861 30.6787 89.7529 30.8906 89.6865 31.0859C89.6201 31.2812 89.5234 31.4521 89.3965 31.5986C89.2715 31.7432 89.1201 31.8564 88.9424 31.9385C88.7666 32.0186 88.5674 32.0586 88.3447 32.0586C88.1221 32.0586 87.9219 32.0186 87.7441 31.9385C87.5664 31.8564 87.4141 31.7432 87.2871 31.5986C87.1621 31.4521 87.0664 31.2812 87 31.0859C86.9336 30.8906 86.9004 30.6787 86.9004 30.4502ZM87.4424 30.3828V30.4502C87.4424 30.6084 87.4609 30.7578 87.498 30.8984C87.5352 31.0371 87.5908 31.1602 87.665 31.2676C87.7412 31.375 87.8359 31.46 87.9492 31.5225C88.0625 31.583 88.1943 31.6133 88.3447 31.6133C88.4932 31.6133 88.623 31.583 88.7344 31.5225C88.8477 31.46 88.9414 31.375 89.0156 31.2676C89.0898 31.1602 89.1455 31.0371 89.1826 30.8984C89.2217 30.7578 89.2412 30.6084 89.2412 30.4502V30.3828C89.2412 30.2266 89.2217 30.0791 89.1826 29.9404C89.1455 29.7998 89.0889 29.6758 89.0127 29.5684C88.9385 29.459 88.8447 29.373 88.7314 29.3105C88.6201 29.248 88.4893 29.2168 88.3389 29.2168C88.1904 29.2168 88.0596 29.248 87.9463 29.3105C87.835 29.373 87.7412 29.459 87.665 29.5684C87.5908 29.6758 87.5352 29.7998 87.498 29.9404C87.4609 30.0791 87.4424 30.2266 87.4424 30.3828ZM91.0078 29.3281V32H90.4658V28.8301H90.9932L91.0078 29.3281ZM91.998 28.8125L91.9951 29.3164C91.9502 29.3066 91.9072 29.3008 91.8662 29.2988C91.8271 29.2949 91.7822 29.293 91.7314 29.293C91.6064 29.293 91.4961 29.3125 91.4004 29.3516C91.3047 29.3906 91.2236 29.4453 91.1572 29.5156C91.0908 29.5859 91.0381 29.6699 90.999 29.7676C90.9619 29.8633 90.9375 29.9688 90.9258 30.084L90.7734 30.1719C90.7734 29.9805 90.792 29.8008 90.8291 29.6328C90.8682 29.4648 90.9277 29.3164 91.0078 29.1875C91.0879 29.0566 91.1895 28.9551 91.3125 28.8828C91.4375 28.8086 91.5859 28.7715 91.7578 28.7715C91.7969 28.7715 91.8418 28.7764 91.8926 28.7861C91.9434 28.7939 91.9785 28.8027 91.998 28.8125ZM93.0439 27.5V32H92.499V27.5H93.0439ZM94.9805 28.8301L93.5977 30.3096L92.8242 31.1123L92.7803 30.5352L93.334 29.873L94.3184 28.8301H94.9805ZM94.4854 32L93.3545 30.4883L93.6357 30.0049L95.124 32H94.4854ZM97.3857 31.1592C97.3857 31.0811 97.3682 31.0088 97.333 30.9424C97.2998 30.874 97.2305 30.8125 97.125 30.7578C97.0215 30.7012 96.8652 30.6523 96.6562 30.6113C96.4805 30.5742 96.3213 30.5303 96.1787 30.4795C96.0381 30.4287 95.918 30.3672 95.8184 30.2949C95.7207 30.2227 95.6455 30.1377 95.5928 30.04C95.54 29.9424 95.5137 29.8281 95.5137 29.6973C95.5137 29.5723 95.541 29.4541 95.5957 29.3428C95.6523 29.2314 95.7314 29.1328 95.833 29.0469C95.9365 28.9609 96.0605 28.8936 96.2051 28.8447C96.3496 28.7959 96.5107 28.7715 96.6885 28.7715C96.9424 28.7715 97.1592 28.8164 97.3389 28.9062C97.5186 28.9961 97.6562 29.1162 97.752 29.2666C97.8477 29.415 97.8955 29.5801 97.8955 29.7617H97.3535C97.3535 29.6738 97.3271 29.5889 97.2744 29.5068C97.2236 29.4229 97.1484 29.3535 97.0488 29.2988C96.9512 29.2441 96.8311 29.2168 96.6885 29.2168C96.5381 29.2168 96.416 29.2402 96.3223 29.2871C96.2305 29.332 96.1631 29.3896 96.1201 29.46C96.0791 29.5303 96.0586 29.6045 96.0586 29.6826C96.0586 29.7412 96.0684 29.7939 96.0879 29.8408C96.1094 29.8857 96.1465 29.9277 96.1992 29.9668C96.252 30.0039 96.3262 30.0391 96.4219 30.0723C96.5176 30.1055 96.6396 30.1387 96.7881 30.1719C97.0479 30.2305 97.2617 30.3008 97.4297 30.3828C97.5977 30.4648 97.7227 30.5654 97.8047 30.6846C97.8867 30.8037 97.9277 30.9482 97.9277 31.1182C97.9277 31.2568 97.8984 31.3838 97.8398 31.499C97.7832 31.6143 97.7002 31.7139 97.5908 31.7979C97.4834 31.8799 97.3545 31.9443 97.2041 31.9912C97.0557 32.0361 96.8887 32.0586 96.7031 32.0586C96.4238 32.0586 96.1875 32.0088 95.9941 31.9092C95.8008 31.8096 95.6543 31.6807 95.5547 31.5225C95.4551 31.3643 95.4053 31.1973 95.4053 31.0215H95.9502C95.958 31.1699 96.001 31.2881 96.0791 31.376C96.1572 31.4619 96.2529 31.5234 96.3662 31.5605C96.4795 31.5957 96.5918 31.6133 96.7031 31.6133C96.8516 31.6133 96.9756 31.5938 97.0752 31.5547C97.1768 31.5156 97.2539 31.4619 97.3066 31.3936C97.3594 31.3252 97.3857 31.2471 97.3857 31.1592Z" fill="#535357"></path>
  <defs>
    <clipPath id="clip0_3795_15023">
      <rect width="106" height="24" fill="white"></rect>
    </clipPath>
  </defs>
</svg>
